<?xml version="1.0" encoding="UTF-8"?>
<!DOCTYPE svg PUBLIC "-//W3C//DTD SVG 1.1//EN" "http://www.w3.org/Graphics/SVG/1.1/DTD/svg11.dtd">
<!-- Creator: CorelDRAW 2021 (64-Bit) -->
<svg xmlns="http://www.w3.org/2000/svg" xml:space="preserve" width="210mm" height="210mm" version="1.1" style="shape-rendering:geometricPrecision; text-rendering:geometricPrecision; image-rendering:optimizeQuality; fill-rule:evenodd; clip-rule:evenodd"
viewBox="0 0 21000 21000"
 xmlns:xlink="http://www.w3.org/1999/xlink"
 xmlns:xodm="http://www.corel.com/coreldraw/odm/2003">
 <defs>
  <style type="text/css">
   <![CDATA[
    .fil0 {fill:#39a900}
   ]]>
  </style>
 </defs>
 <g id="Capa_x0020_1">
  <metadata id="CorelCorpID_0Corel-Layer"/>
  <path class="fil0" d="M12190.53 3637.77l2993.09 5184.12c-1230.79,-1109.66 -2860.11,-1784.47 -4647.64,-1784.47 -1787.53,0 -3416.85,674.81 -4647.64,1784.47l2993.09 -5184.12c350.78,-607.57 952.99,-955.29 1654.55,-955.29 701.56,0 1303.77,347.72 1654.55,955.29zm-1654.55 4675.14c1433.98,0 2597.22,1163.25 2597.22,2597.23 0,1433.97 -1163.24,2597.21 -2597.22,2597.21 -1433.98,0 -2597.22,-1163.24 -2597.22,-2597.21 0,-1433.98 1163.24,-2597.23 2597.22,-2597.23zm6033.56 2909.41l2880.37 4989.25c415.74,719.9 331.67,1585 -215.13,2211.66 -546.81,626.29 -1392.81,826.52 -2162.38,512.04l-5813.47 -2375.98c-481.46,-196.79 -964.44,-196.79 -1445.9,0l-5813.47 2375.98c-769.57,314.48 -1615.57,114.25 -2162.38,-512.04 -546.8,-626.66 -630.87,-1491.76 -215.13,-2211.66l2880.37 -4989.25c1196.39,2093.22 3449.33,3504.74 6033.56,3504.74 2584.23,0 4837.17,-1411.52 6033.56,-3504.74z"/>
 </g>
</svg>
