<?xml version="1.0" encoding="utf-8"?>
<!-- Generator: Adobe Illustrator 28.2.0, SVG Export Plug-In . SVG Version: 6.00 Build 0)  -->
<svg version="1.1" id="Capa_1" xmlns="http://www.w3.org/2000/svg" xmlns:xlink="http://www.w3.org/1999/xlink" x="0px" y="0px"
	 viewBox="0 0 610.17 128.66" style="enable-background:new 0 0 610.17 128.66;" xml:space="preserve">
<style type="text/css">
	.st0{clip-path:url(#SVGID_00000148643838563455081780000005699696778962229638_);fill:#39a900;}
	.st1{fill:#39a900;}
</style>
<g>
	<g>
		<defs>
			<path id="SVGID_1_" d="M32.79,96.74c-0.35-0.09-0.64-0.3-0.83-0.61c-0.18-0.31-0.24-0.67-0.15-1.01c0.15-0.61,0.7-1.02,1.3-1.02
				c0.11,0,0.22,0.01,0.32,0.04c0.72,0.18,1.16,0.91,0.98,1.63c-0.09,0.35-0.3,0.64-0.61,0.83c-0.21,0.13-0.45,0.19-0.69,0.19
				C33,96.78,32.89,96.77,32.79,96.74 M95.34,96.59c-0.31-0.18-0.52-0.48-0.61-0.82c-0.18-0.72,0.26-1.45,0.98-1.63
				c0.11-0.03,0.22-0.04,0.33-0.04c0.24,0,0.48,0.07,0.69,0.19c0.31,0.18,0.52,0.48,0.61,0.83c0.18,0.72-0.26,1.45-0.98,1.62
				c-0.11,0.03-0.22,0.04-0.33,0.04C95.79,96.78,95.55,96.72,95.34,96.59 M61.85,91.83c0-1.49,1.21-2.71,2.71-2.71
				c1.49,0,2.71,1.21,2.71,2.71c0,1.49-1.21,2.71-2.71,2.71C63.07,94.54,61.85,93.33,61.85,91.83 M39.23,56.92
				c0-0.74,0.6-1.34,1.34-1.34c0.74,0,1.34,0.6,1.34,1.34c0,0.74-0.6,1.34-1.34,1.34C39.83,58.26,39.23,57.66,39.23,56.92
				 M87.21,56.92c0-0.74,0.6-1.34,1.34-1.34c0.74,0,1.34,0.6,1.34,1.34c0,0.74-0.6,1.34-1.34,1.34
				C87.81,58.26,87.21,57.66,87.21,56.92 M34.26,66.06c-3.65-6.85-3.81-14.95-0.5-21.92c7.63,1.14,14.26,5.79,17.91,12.64
				c3.28,6.15,3.73,13.32,1.39,19.77l-8.77-16.45c0.74-0.86,1.19-1.97,1.19-3.19c0-2.71-2.2-4.91-4.91-4.91
				c-2.71,0-4.91,2.2-4.91,4.91c0,2.7,2.2,4.91,4.91,4.91c0.19,0,0.38-0.02,0.57-0.04l8.78,16.45
				C43.25,76.6,37.54,72.22,34.26,66.06 M77.45,56.78c3.65-6.84,10.28-11.5,17.91-12.64c3.32,6.96,3.15,15.07-0.49,21.92
				c-3.28,6.16-8.99,10.54-15.66,12.18l8.78-16.46c0.19,0.02,0.38,0.04,0.57,0.04c2.7,0,4.9-2.2,4.9-4.91c0-2.71-2.2-4.91-4.9-4.91
				c-2.71,0-4.91,2.2-4.91,4.91c0,1.22,0.45,2.33,1.19,3.19l-8.77,16.45C73.72,70.11,74.17,62.94,77.45,56.78 M94.46,20.36
				c0-1.18,0.96-2.14,2.14-2.14c1.18,0,2.13,0.96,2.13,2.14c0,0.42-0.13,0.82-0.34,1.15c-0.01,0.01-0.02,0.02-0.03,0.03
				c-0.02,0.03-0.03,0.06-0.05,0.09c-0.39,0.52-1.01,0.87-1.71,0.87C95.42,22.5,94.46,21.54,94.46,20.36 M59.71,10.52
				c0-1.18,0.96-2.14,2.14-2.14c1.18,0,2.13,0.96,2.13,2.14s-0.96,2.14-2.13,2.14C60.67,12.66,59.71,11.7,59.71,10.52 M56.29,9.27
				c-28.83,4.08-50.4,28.78-50.4,58.07c0,32.35,26.32,58.67,58.68,58.67c1.01,0,1.99-0.03,3.01-0.08
				c31.21-1.57,55.66-27.3,55.66-58.58c0-17.59-7.72-33.97-21.24-45.17c0.19-0.57,0.3-1.18,0.3-1.81c0-3.14-2.56-5.7-5.7-5.7
				c-3.14,0-5.7,2.55-5.7,5.7c0,3.14,2.56,5.7,5.7,5.7c1.21,0,2.34-0.39,3.26-1.04c12.61,10.52,19.81,25.85,19.81,42.32
				c0,27.62-20.3,50.64-47.09,54.52c4.38-3.81,9.29-9.62,10.99-17.45c2.44-3.08,5.28-5.13,8.47-6.11c0.38,0.54,0.88,0.99,1.46,1.35
				c0.77,0.47,1.64,0.7,2.52,0.7c0.4,0,0.8-0.05,1.19-0.15c2.62-0.65,4.23-3.32,3.58-5.94v0c-0.32-1.27-1.11-2.34-2.23-3.02
				c-1.12-0.67-2.44-0.87-3.71-0.56c-2.03,0.5-3.44,2.21-3.68,4.17c-2.52,0.75-4.85,2.03-6.97,3.81c0.01-2.28-0.25-4.68-0.86-7.23
				c-0.75-3.14-2.2-6.32-4.3-9.49c8.08-1.67,15.04-6.82,18.97-14.19c4.4-8.26,4.38-18.11-0.06-26.36c-0.34-0.63-1.02-1-1.75-0.93
				c-9.31,0.93-17.5,6.41-21.9,14.66c-4.38,8.22-4.38,18.03,0,26.26c0.06,0.14,0.14,0.27,0.24,0.39c2.71,3.54,4.5,7.07,5.32,10.49
				c3.79,15.9-7.64,25.92-13.52,29.91V97.84c2.59-0.77,4.48-3.17,4.48-6.01c0-3.46-2.81-6.27-6.27-6.27c-3.46,0-6.27,2.81-6.27,6.27
				c0,2.84,1.9,5.24,4.5,6.01v24.33c-5.88-3.98-17.32-14.01-13.54-29.92c0.82-3.42,2.61-6.95,5.32-10.48
				c0.1-0.12,0.18-0.26,0.25-0.4c4.38-8.23,4.38-18.03,0-26.26c-4.4-8.25-12.58-13.73-21.9-14.66c-0.71-0.06-1.4,0.3-1.75,0.93
				c-4.44,8.25-4.46,18.1-0.06,26.36C35.05,75.11,42,80.26,50.08,81.93c-2.1,3.17-3.55,6.35-4.3,9.49
				c-0.61,2.54-0.86,4.95-0.86,7.22c-2.12-1.78-4.44-3.05-6.95-3.8c-0.24-1.96-1.66-3.66-3.68-4.17c-2.62-0.65-5.29,0.95-5.95,3.58
				c-0.32,1.27-0.12,2.59,0.56,3.71c0.68,1.12,1.75,1.91,3.02,2.23c0.4,0.1,0.79,0.15,1.19,0.15c0.88,0,1.75-0.24,2.52-0.7
				c0.58-0.35,1.07-0.81,1.46-1.35c3.18,0.98,6.01,3.03,8.45,6.09c1.7,7.83,6.61,13.66,10.99,17.47C29.94,117.95,9.45,95,9.45,67.34
				c0-27.46,20.18-50.62,47.18-54.52c0.88,2,2.89,3.4,5.21,3.4c3.14,0,5.7-2.56,5.7-5.7c0-3.14-2.56-5.7-5.7-5.7
				C59.14,4.82,56.86,6.73,56.29,9.27"/>
		</defs>
		<use xlink:href="#SVGID_1_"  style="overflow:visible;fill:#39a900;"/>
		<clipPath id="SVGID_00000016057946154516725440000005524590207143009932_">
			<use xlink:href="#SVGID_1_"  style="overflow:visible;"/>
		</clipPath>
		
			<rect x="5.89" y="4.82" style="clip-path:url(#SVGID_00000016057946154516725440000005524590207143009932_);fill:#39a900;" width="117.35" height="121.19"/>
	</g>
	<g>
		<path class="st1" d="M363.27,18.84c4.24,0,8.37,0,12.67,0c0,0.45,0,0.91,0,1.37c0.02,18.9,0.03,37.79,0.05,56.69
			c0,3.72,0.42,7.39,1.55,10.95c2.38,7.48,7.34,12.42,14.74,14.99c10.45,3.63,20.28,2.43,29.43-3.79
			c7.51-5.11,11.17-12.36,11.21-21.37c0.07-19.26,0.02-38.53,0.02-57.79c0-0.44,0-0.87,0-1.43c2.1,0,4.14-0.09,6.17,0.04
			c0.97,0.06,1.44,0.93,1.54,1.89c0.04,0.4,0,0.81,0,1.21c0,20.91,0,41.83,0,62.74c0,0.29,0,0.58,0,1.05
			c0.28-0.23,0.47-0.35,0.62-0.51c18.35-20.59,36.69-41.19,55.03-61.79c0.98-1.1,1.95-2.19,2.92-3.29c0.82-0.94,1.84-1.39,3.1-1.37
			c2.16,0.04,4.33,0.01,6.49,0.01c1.74,0,2.23,0.49,2.23,2.21c0.01,24.51,0.01,49.02,0.03,73.53c0,4.22,0.02,8.44,0.03,12.66
			c0,0.44,0.01,0.88-0.04,1.32c-0.19,1.74-0.85,2.26-2.61,2.21c-1.61-0.04-3.22-0.01-4.93-0.01c0-24.32,0-48.49,0-72.65
			c-0.16-0.13-0.33-0.26-0.49-0.39c-0.12,0.3-0.16,0.67-0.36,0.89c-7.59,8.61-15.2,17.2-22.8,25.81
			c-7.38,8.36-14.75,16.73-22.11,25.1c-5.6,6.36-11.18,12.73-16.76,19.1c-1.4,1.6-3.04,2.46-5.23,2.12
			c-0.82-0.13-1.67-0.02-2.59-0.02c0-3.62,0-7.13,0-10.94c-0.45,0.4-0.72,0.6-0.95,0.84c-7.09,7.33-15.86,10.99-25.91,11.82
			c-7.64,0.63-15.17,0.21-22.39-2.68c-7.08-2.83-12.95-7.13-16.77-13.89c-2.74-4.84-3.9-10.12-3.93-15.61
			c-0.08-19.44-0.08-38.89-0.1-58.33C363.12,20.68,363.21,19.84,363.27,18.84z"/>
		<path class="st1" d="M215.49,18.65c0.43,2.69,0.09,4.73-1.42,6.67c-14.02,17.99-27.98,36.03-41.97,54.03
			c-7.8,10.04-15.65,20.05-23.46,30.09c-0.74,0.96-1.68,1.44-2.82,1.43c-3.01-0.01-6.01-0.11-9.02-0.17
			c-0.76-0.02-0.97-0.53-1.05-1.16c-0.24-1.88,0.24-3.55,1.4-5.05c13.88-17.91,27.75-35.83,41.62-53.74
			c7.38-9.53,14.81-19.02,22.13-28.59c1.93-2.52,4.22-3.76,7.42-3.55C210.69,18.78,213.08,18.65,215.49,18.65z"/>
		<path class="st1" d="M305.38,102.07c1.91-1.99,3.75-3.92,5.67-5.93c1.25,1.19,2.4,2.38,3.64,3.45c1.39,1.19,2.77,2.43,4.31,3.39
			c5.76,3.57,12.38,2.22,16.3-3.33c2.91-4.11,4.57-8.76,4.69-13.76c0.28-11.41,0.32-22.82,0.41-34.23c0.01-1.08,0.26-1.93,0.94-2.8
			c3.93-4.97,7.8-9.99,11.83-15.17c0.06,0.45,0.13,0.7,0.13,0.96c-0.02,15.74,0.02,31.48-0.09,47.22
			c-0.04,5.43-1.18,10.7-3.51,15.65c-6.18,13.15-20.83,18.47-34.14,12.4C311.6,108.13,308.23,105.54,305.38,102.07z"/>
		<g>
			<path class="st1" d="M513.25,110.31c1.05-2.43,1.97-4.65,2.95-6.85c9.97-22.24,19.96-44.47,29.94-66.7
				c2.44-5.44,4.92-10.86,7.34-16.31c0.65-1.46,1.59-2.16,3.23-2.04c1.46,0.1,2.93,0.06,4.4,0c1.35-0.05,2.26,0.58,2.79,1.74
				c2.01,4.43,3.99,8.88,5.95,13.34c0.11,0.26,0.07,0.73-0.1,0.95c-2.93,3.8-5.88,7.58-8.84,11.37c-0.04,0.05-0.13,0.07-0.22,0.11
				c-1.8-3.88-3.61-7.76-5.52-11.88c-0.33,0.68-0.59,1.18-0.82,1.69c-7.55,16.83-15.1,33.67-22.66,50.5
				c-3.25,7.24-6.5,14.49-9.76,21.73c-1.03,2.28-1.3,2.41-3.75,2.36C516.66,110.28,515.13,110.31,513.25,110.31z"/>
			<path class="st1" d="M572.85,40.16c10.47,23.33,20.91,46.57,31.43,70.01c-0.85,0.06-1.38,0.13-1.9,0.13
				c-3.23-0.01-6.46-0.1-9.68-0.01c-1.6,0.04-2.43-0.73-3.03-2.02c-1.45-3.12-2.91-6.23-4.36-9.35
				c-7.09-15.26-14.17-30.52-21.28-45.77c-0.37-0.8-0.36-1.33,0.2-2.03c2.74-3.44,5.42-6.92,8.13-10.39
				C572.48,40.56,572.63,40.41,572.85,40.16z"/>
		</g>
		<g>
			<path class="st1" d="M218.25,110.31c1.05-2.43,1.97-4.65,2.95-6.85c9.97-22.24,19.96-44.47,29.94-66.7
				c2.44-5.44,4.92-10.86,7.34-16.31c0.65-1.46,1.59-2.16,3.23-2.04c1.46,0.1,2.93,0.06,4.4,0c1.35-0.05,2.26,0.58,2.79,1.74
				c2.01,4.43,3.99,8.88,5.95,13.34c0.11,0.26,0.07,0.73-0.1,0.95c-2.93,3.8-5.88,7.58-8.84,11.37c-0.04,0.05-0.13,0.07-0.22,0.11
				c-1.8-3.88-3.61-7.76-5.52-11.88c-0.33,0.68-0.59,1.18-0.82,1.69c-7.55,16.83-15.1,33.67-22.66,50.5
				c-3.25,7.24-6.5,14.49-9.76,21.73c-1.03,2.28-1.3,2.41-3.75,2.36C221.66,110.28,220.13,110.31,218.25,110.31z"/>
			<path class="st1" d="M277.85,40.16c10.47,23.33,20.91,46.57,31.43,70.01c-0.85,0.06-1.38,0.13-1.9,0.13
				c-3.23-0.01-6.46-0.1-9.68-0.01c-1.6,0.04-2.43-0.73-3.03-2.02c-1.45-3.12-2.91-6.23-4.36-9.35
				c-7.09-15.26-14.17-30.52-21.28-45.77c-0.37-0.8-0.36-1.33,0.2-2.03c2.74-3.44,5.42-6.92,8.13-10.39
				C277.48,40.56,277.63,40.41,277.85,40.16z"/>
		</g>
		<path class="st1" d="M154.07,110.71c1.98-2.54,3.78-4.89,5.63-7.19c0.19-0.24,0.71-0.31,1.08-0.31c3.63-0.02,7.26-0.02,10.89-0.02
			c14.67-0.01,29.34-0.02,44.02-0.04c2.24,0,2.85,0.62,2.81,2.88c-0.01,0.77-0.05,1.54-0.13,2.31c-0.16,1.55-0.95,2.28-2.52,2.34
			c-0.99,0.04-1.98,0.04-2.97,0.04c-19.18,0-38.37,0-57.55,0C155,110.71,154.67,110.71,154.07,110.71z"/>
		<path class="st1" d="M196.88,19.11c-1.87,2.4-3.57,4.65-5.36,6.83c-0.25,0.31-0.89,0.44-1.35,0.44
			c-9.79,0.02-19.58,0.02-29.38,0.02c-6.89,0-13.79,0-20.68-0.01c-1.72,0-1.74-0.03-1.74-1.7c0-1.83,0-3.66,0-5.57
			C157.85,19.11,177.25,19.11,196.88,19.11z"/>
		<path class="st1" d="M340.68,40.1c0-7.18,0-14.15,0-21.21c4.17,0,8.33,0,12.61,0c0,1.63,0.02,3.23-0.02,4.83
			c-0.01,0.26-0.19,0.55-0.36,0.77c-3.91,5.03-7.83,10.06-11.75,15.09C341.06,39.71,340.93,39.83,340.68,40.1z"/>
	</g>
</g>
</svg>
